<svg width="300" height="71" viewBox="0 0 300 71" fill="none"
	xmlns="http://www.w3.org/2000/svg">
	<path d="M58.017 15.2727H67.0455L79.1364 44.7841H79.6136L91.7045 15.2727H100.733V56H93.6534V28.0199H93.2756L82.0199 55.8807H76.7301L65.4744 27.9602H65.0966V56H58.017V15.2727ZM120.093 56.5966C117.11 56.5966 114.525 55.9403 112.337 54.6278C110.15 53.3153 108.453 51.4792 107.246 49.1193C106.053 46.7595 105.456 44.0019 105.456 40.8466C105.456 37.6913 106.053 34.9271 107.246 32.554C108.453 30.1809 110.15 28.3381 112.337 27.0256C114.525 25.7131 117.11 25.0568 120.093 25.0568C123.076 25.0568 125.661 25.7131 127.848 27.0256C130.036 28.3381 131.726 30.1809 132.919 32.554C134.126 34.9271 134.729 37.6913 134.729 40.8466C134.729 44.0019 134.126 46.7595 132.919 49.1193C131.726 51.4792 130.036 53.3153 127.848 54.6278C125.661 55.9403 123.076 56.5966 120.093 56.5966ZM120.132 50.8295C121.75 50.8295 123.102 50.3854 124.189 49.4972C125.276 48.5956 126.085 47.3892 126.615 45.8778C127.159 44.3665 127.431 42.6828 127.431 40.8267C127.431 38.9574 127.159 37.267 126.615 35.7557C126.085 34.2311 125.276 33.018 124.189 32.1165C123.102 31.215 121.75 30.7642 120.132 30.7642C118.475 30.7642 117.097 31.215 115.996 32.1165C114.909 33.018 114.094 34.2311 113.55 35.7557C113.02 37.267 112.755 38.9574 112.755 40.8267C112.755 42.6828 113.02 44.3665 113.55 45.8778C114.094 47.3892 114.909 48.5956 115.996 49.4972C117.097 50.3854 118.475 50.8295 120.132 50.8295ZM146.358 38.1023V56H139.159V25.4545H146.04V30.6449H146.398C147.1 28.9347 148.221 27.5758 149.759 26.5682C151.31 25.5606 153.225 25.0568 155.506 25.0568C157.614 25.0568 159.45 25.5076 161.014 26.4091C162.592 27.3106 163.812 28.6165 164.673 30.3267C165.548 32.0369 165.979 34.1117 165.966 36.5511V56H158.767V37.6648C158.767 35.6231 158.237 34.0256 157.176 32.8722C156.129 31.7187 154.677 31.142 152.821 31.142C151.562 31.142 150.441 31.4205 149.46 31.9773C148.493 32.5208 147.73 33.3097 147.173 34.3438C146.63 35.3778 146.358 36.6307 146.358 38.1023ZM184.928 56.5966C181.945 56.5966 179.36 55.9403 177.172 54.6278C174.985 53.3153 173.288 51.4792 172.081 49.1193C170.888 46.7595 170.292 44.0019 170.292 40.8466C170.292 37.6913 170.888 34.9271 172.081 32.554C173.288 30.1809 174.985 28.3381 177.172 27.0256C179.36 25.7131 181.945 25.0568 184.928 25.0568C187.911 25.0568 190.496 25.7131 192.684 27.0256C194.871 28.3381 196.562 30.1809 197.755 32.554C198.961 34.9271 199.564 37.6913 199.564 40.8466C199.564 44.0019 198.961 46.7595 197.755 49.1193C196.562 51.4792 194.871 53.3153 192.684 54.6278C190.496 55.9403 187.911 56.5966 184.928 56.5966ZM184.968 50.8295C186.585 50.8295 187.938 50.3854 189.025 49.4972C190.112 48.5956 190.92 47.3892 191.451 45.8778C191.994 44.3665 192.266 42.6828 192.266 40.8267C192.266 38.9574 191.994 37.267 191.451 35.7557C190.92 34.2311 190.112 33.018 189.025 32.1165C187.938 31.215 186.585 30.7642 184.968 30.7642C183.311 30.7642 181.932 31.215 180.831 32.1165C179.744 33.018 178.929 34.2311 178.385 35.7557C177.855 37.267 177.59 38.9574 177.59 40.8267C177.59 42.6828 177.855 44.3665 178.385 45.8778C178.929 47.3892 179.744 48.5956 180.831 49.4972C181.932 50.3854 183.311 50.8295 184.968 50.8295ZM203.994 67.4545V25.4545H211.074V30.5057H211.492C211.863 29.7633 212.387 28.9744 213.063 28.1392C213.739 27.2907 214.654 26.5682 215.807 25.9716C216.96 25.3617 218.432 25.0568 220.222 25.0568C222.582 25.0568 224.709 25.66 226.605 26.8665C228.514 28.0597 230.026 29.8295 231.139 32.1761C232.266 34.5095 232.83 37.3731 232.83 40.767C232.83 44.1212 232.28 46.9716 231.179 49.3182C230.079 51.6648 228.581 53.4545 226.685 54.6875C224.789 55.9205 222.641 56.5369 220.242 56.5369C218.492 56.5369 217.04 56.2453 215.887 55.6619C214.733 55.0786 213.805 54.3759 213.102 53.554C212.413 52.7187 211.876 51.9299 211.492 51.1875H211.193V67.4545H203.994ZM211.054 40.7273C211.054 42.7027 211.333 44.4328 211.889 45.9176C212.459 47.4025 213.275 48.5625 214.335 49.3977C215.409 50.2197 216.709 50.6307 218.233 50.6307C219.824 50.6307 221.156 50.2064 222.23 49.358C223.304 48.4962 224.113 47.3229 224.656 45.8381C225.213 44.34 225.492 42.6364 225.492 40.7273C225.492 38.8314 225.22 37.1477 224.676 35.6761C224.133 34.2045 223.324 33.0511 222.25 32.2159C221.176 31.3807 219.837 30.9631 218.233 30.9631C216.695 30.9631 215.389 31.3674 214.316 32.1761C213.242 32.9848 212.426 34.1184 211.869 35.5767C211.326 37.035 211.054 38.7519 211.054 40.7273ZM246.104 56.6165C244.169 56.6165 242.425 56.2718 240.874 55.5824C239.336 54.8797 238.117 53.8456 237.215 52.4801C236.327 51.1146 235.883 49.4309 235.883 47.429C235.883 45.7055 236.201 44.2803 236.837 43.1534C237.474 42.0265 238.342 41.125 239.442 40.4489C240.543 39.7727 241.782 39.2623 243.161 38.9176C244.553 38.5597 245.992 38.3011 247.476 38.142C249.266 37.9564 250.718 37.7907 251.832 37.6449C252.945 37.4858 253.754 37.2472 254.258 36.929C254.775 36.5975 255.033 36.0871 255.033 35.3977V35.2784C255.033 33.7803 254.589 32.6203 253.701 31.7983C252.813 30.9763 251.533 30.5653 249.863 30.5653C248.1 30.5653 246.701 30.9498 245.667 31.7188C244.646 32.4877 243.957 33.3958 243.599 34.4432L236.877 33.4886C237.407 31.6326 238.282 30.0814 239.502 28.8352C240.722 27.5758 242.213 26.6345 243.976 26.0114C245.74 25.375 247.689 25.0568 249.823 25.0568C251.295 25.0568 252.76 25.2292 254.218 25.5739C255.676 25.9186 257.009 26.4886 258.215 27.2841C259.422 28.0663 260.389 29.1335 261.118 30.4858C261.861 31.8381 262.232 33.5284 262.232 35.5568V56H255.312V51.804H255.073C254.636 52.6525 254.019 53.4479 253.224 54.1903C252.441 54.9195 251.454 55.5095 250.261 55.9602C249.081 56.3977 247.695 56.6165 246.104 56.6165ZM247.974 51.3267C249.419 51.3267 250.672 51.0417 251.732 50.4716C252.793 49.8883 253.608 49.1193 254.178 48.1648C254.761 47.2102 255.053 46.1695 255.053 45.0426V41.4432C254.828 41.6288 254.443 41.8011 253.9 41.9602C253.369 42.1193 252.773 42.2585 252.11 42.3778C251.447 42.4972 250.791 42.6032 250.141 42.696C249.492 42.7888 248.928 42.8684 248.451 42.9347C247.377 43.0805 246.416 43.3191 245.567 43.6506C244.719 43.982 244.049 44.446 243.559 45.0426C243.068 45.6259 242.823 46.3816 242.823 47.3097C242.823 48.6354 243.307 49.6364 244.275 50.3125C245.243 50.9886 246.475 51.3267 247.974 51.3267ZM279.126 56.5369C276.726 56.5369 274.579 55.9205 272.683 54.6875C270.787 53.4545 269.289 51.6648 268.188 49.3182C267.088 46.9716 266.538 44.1212 266.538 40.767C266.538 37.3731 267.095 34.5095 268.208 32.1761C269.335 29.8295 270.853 28.0597 272.762 26.8665C274.671 25.66 276.799 25.0568 279.146 25.0568C280.936 25.0568 282.407 25.3617 283.561 25.9716C284.714 26.5682 285.629 27.2907 286.305 28.1392C286.981 28.9744 287.505 29.7633 287.876 30.5057H288.174V15.2727H295.393V56H288.313V51.1875H287.876C287.505 51.9299 286.968 52.7187 286.265 53.554C285.563 54.3759 284.634 55.0786 283.481 55.6619C282.328 56.2453 280.876 56.5369 279.126 56.5369ZM281.134 50.6307C282.659 50.6307 283.958 50.2197 285.032 49.3977C286.106 48.5625 286.921 47.4025 287.478 45.9176C288.035 44.4328 288.313 42.7027 288.313 40.7273C288.313 38.7519 288.035 37.035 287.478 35.5767C286.935 34.1184 286.126 32.9848 285.052 32.1761C283.991 31.3674 282.686 30.9631 281.134 30.9631C279.53 30.9631 278.191 31.3807 277.117 32.2159C276.044 33.0511 275.235 34.2045 274.691 35.6761C274.148 37.1477 273.876 38.8314 273.876 40.7273C273.876 42.6364 274.148 44.34 274.691 45.8381C275.248 47.3229 276.063 48.4962 277.137 49.358C278.224 50.2064 279.557 50.6307 281.134 50.6307Z" fill="white"/>
	<path d="M0 15H41V56H0V15Z" fill="white"/>
</svg>
